<svg width="40" height="40" viewBox="0 0 40 40" fill="none" xmlns="http://www.w3.org/2000/svg">
<path d="M30 31.4361H28.7333C27.4 31.4361 26.1333 31.9528 25.2 32.8861L22.35 35.7029C21.05 36.9863 18.9333 36.9863 17.6333 35.7029L14.7833 32.8861C13.85 31.9528 12.5667 31.4361 11.25 31.4361H10C7.23333 31.4361 5 29.2194 5 26.4861V8.30273C5 5.5694 7.23333 3.35278 10 3.35278H30C32.7667 3.35278 35 5.5694 35 8.30273V26.4861C35 29.2028 32.7667 31.4361 30 31.4361Z" stroke="#E32228" stroke-opacity="0.890196" stroke-width="2" stroke-miterlimit="10" stroke-linecap="round" stroke-linejoin="round"/>
<path d="M11.6667 15.2645C11.6667 13.7145 12.9334 12.4478 14.4834 12.4478C16.0334 12.4478 17.3001 13.7145 17.3001 15.2645C17.3001 18.3978 12.8501 18.7312 11.8667 21.7145C11.6667 22.3312 12.1834 22.9478 12.8334 22.9478H17.3001" stroke="#E32228" stroke-opacity="0.890196" stroke-width="2" stroke-linecap="round" stroke-linejoin="round"/>
<path d="M26.7329 22.9345V13.418C26.7329 12.9846 26.4496 12.6012 26.0329 12.4845C25.6163 12.3679 25.1663 12.5345 24.9329 12.9012C23.7329 14.8345 22.4329 17.0345 21.2996 18.9678C21.1163 19.2845 21.1163 19.7012 21.2996 20.0178C21.4829 20.3345 21.8329 20.5345 22.2163 20.5345H28.3329" stroke="#E32228" stroke-opacity="0.890196" stroke-width="2" stroke-linecap="round" stroke-linejoin="round"/>
</svg>
