<svg width="40" height="40" viewBox="0 0 40 40" fill="none" xmlns="http://www.w3.org/2000/svg">
<path d="M32.7778 6.11108H31.6667C30.4394 6.11108 29.4445 7.10601 29.4445 8.33331V31.6666C29.4445 32.8939 30.4394 33.8889 31.6667 33.8889H32.7778C34.0051 33.8889 35 32.8939 35 31.6666V8.33331C35 7.10601 34.0051 6.11108 32.7778 6.11108Z" stroke="#E32228" stroke-width="2" stroke-linecap="round" stroke-linejoin="round"/>
<path d="M20.5555 17.2222H19.4444C18.2171 17.2222 17.2222 18.2171 17.2222 19.4444V31.6666C17.2222 32.8939 18.2171 33.8888 19.4444 33.8888H20.5555C21.7828 33.8888 22.7777 32.8939 22.7777 31.6666V19.4444C22.7777 18.2171 21.7828 17.2222 20.5555 17.2222Z" stroke="#E32228" stroke-width="2" stroke-linecap="round" stroke-linejoin="round"/>
<path d="M8.33333 26.1111H7.22222C5.99492 26.1111 5 27.106 5 28.3333V31.6666C5 32.8939 5.99492 33.8889 7.22222 33.8889H8.33333C9.56063 33.8889 10.5556 32.8939 10.5556 31.6666V28.3333C10.5556 27.106 9.56063 26.1111 8.33333 26.1111Z" stroke="#E32228" stroke-width="2" stroke-linecap="round" stroke-linejoin="round"/>
<path d="M13.8889 6.11108H19.4445V11.6666" stroke="#E32228" stroke-width="2" stroke-linecap="round" stroke-linejoin="round"/>
<path d="M18.8889 6.66663L6.11108 19.4444" stroke="#E32228" stroke-width="2" stroke-linecap="round" stroke-linejoin="round"/>
</svg>
