<svg width="204" height="64" viewBox="0 0 204 64" fill="none" xmlns="http://www.w3.org/2000/svg">
<path d="M0 36.8423C114.486 41.2746 146.942 63.8593 146.942 63.8593H172.24C166.634 60.0614 159.494 56.7922 151.367 53.9636L156.885 52.4656C165.444 55.629 172.919 59.3741 178.702 63.8593H204C138.251 18.787 0 36.8423 0 36.8423ZM25.1044 36.0669V36.4017C18.7931 36.2079 15.0644 36.1902 15.0644 36.1902C15.0644 36.1902 18.7754 36.0845 25.1044 36.0669ZM38.8555 36.1726V36.9304C33.7958 36.6837 29.362 36.5251 25.7391 36.4194V36.0669C29.362 36.0669 33.8134 36.0845 38.8555 36.1726ZM40.1953 36.1902C44.2942 36.2784 48.7721 36.4017 53.5585 36.578V37.7587C48.7897 37.4415 44.3118 37.1772 40.1953 36.9833V36.1902ZM70.2977 37.4415L69.0813 38.9748C64.1362 38.5342 59.3586 38.1641 54.819 37.8645V36.6485C59.7288 36.8423 64.9119 37.1067 70.2889 37.4591V37.4415H70.2977ZM104.605 43.1692C99.2101 42.3409 93.7714 41.6007 88.412 40.975L89.84 39.0453C95.6754 39.6268 101.581 40.3142 107.461 41.116L104.614 43.1692H104.605ZM109.911 41.4509C116.328 42.3849 122.693 43.4688 128.881 44.7377L124.253 46.6675C118.7 45.5043 112.996 44.4909 107.249 43.5745L109.902 41.4509H109.911ZM86.226 40.7107C80.9371 40.0939 75.7276 39.5652 70.6856 39.1069L71.9373 37.5384C77.0675 37.8909 82.3827 38.3139 87.7598 38.825L86.2436 40.7195L86.226 40.7019V40.7107ZM145.567 52.0691C140.19 50.4125 134.452 48.9409 128.528 47.6191L132.75 45.5836C139.256 47.0287 145.514 48.6765 151.367 50.5711L145.549 52.0867L145.567 52.0691Z" fill="#E32228"/>
<path d="M121.079 55.1528C118.25 54.2716 110.546 52.2537 110.546 52.2537C104.71 50.7734 97.7644 49.2313 89.6549 47.7157C88.3503 47.4689 80.6197 46.1295 80.6197 46.1295C75.6747 45.3189 70.3682 44.5258 64.6562 43.7944C58.0451 42.878 31.4422 40.3843 31.4422 40.3843C26.1886 39.9789 20.697 39.6088 14.985 39.2916L5.75598 38.4985L14.703 40.8513L10.6041 63.9998H52.483L55.2244 48.6409H29.9966L31.3364 41.098C34.8888 41.1333 64.5504 44.5258 64.5504 44.5258L61.1039 63.9822H77.4729L80.5316 46.7376L89.7959 48.2884L93.0133 63.9822H103.988L110.229 52.8529C112.988 53.6108 120.974 55.8401 120.974 55.8401L119.528 63.9822H135.351L135.985 60.3606C132.239 58.8097 127.338 57.0385 121.088 55.144H121.071L121.079 55.1528Z" fill="white"/>
<path d="M146.66 0H124.632L106.297 32.6741L101.387 32.2864L94.6265 0H72.4044L66.9217 30.9029C60.3458 30.6915 34.9241 31.555 32.9672 31.6255L38.5734 0H21.9399L15.9988 33.5024C20.7852 33.1147 26.4619 32.7094 32.8614 32.3569C40.019 31.9339 66.8335 31.5462 66.8335 31.5462C72.0871 31.5814 77.5435 31.6872 83.1496 31.8987L86.4728 32.0397C91.4179 32.2688 96.4423 32.5684 101.537 32.9737L105.918 33.3438C110.687 33.7668 115.482 34.2778 120.286 34.8947L124.597 35.4762L124.702 34.8771L120.639 34.2778L126.739 23.3953L124.597 35.4674C129.727 36.19 134.866 37.0359 139.943 37.9964C139.943 37.9964 144.148 38.9305 146.166 39.5825C146.166 39.5825 143.742 38.1374 140.102 37.1417L146.66 0ZM83.2378 31.3435L84.6658 23.3072L86.3318 31.4845L83.2378 31.3435Z" fill="white"/>
</svg>
