<svg width="55" height="55" viewBox="0 0 55 55" fill="none" xmlns="http://www.w3.org/2000/svg">
<circle opacity="0.1" cx="27.5" cy="27.5" r="27.5" fill="#E32228"/>
<circle opacity="0.2" cx="27.5" cy="27.5" r="21.5" fill="#E32228"/>
<rect x="11" y="11" width="33" height="33" rx="16.5" fill="#E32228"/>
<path d="M27.0196 35.2C26.0863 35.2 25.2396 35.0333 24.4796 34.7C23.7329 34.3533 23.0996 33.8533 22.5796 33.2L24.1396 31.64C24.4196 32.0667 24.8129 32.4067 25.3196 32.66C25.8263 32.9133 26.3796 33.04 26.9796 33.04C27.5529 33.04 28.0463 32.9333 28.4596 32.72C28.8729 32.5067 29.1929 32.2067 29.4196 31.82C29.6596 31.4333 29.7796 30.9867 29.7796 30.48C29.7796 29.9467 29.6596 29.4933 29.4196 29.12C29.1929 28.7467 28.8596 28.46 28.4196 28.26C27.9929 28.0467 27.4729 27.94 26.8596 27.94C26.6196 27.94 26.3729 27.96 26.1196 28C25.8663 28.0267 25.6396 28.0733 25.4396 28.14L26.4596 26.82C26.7396 26.7133 27.0329 26.6267 27.3396 26.56C27.6596 26.48 27.9663 26.44 28.2596 26.44C28.9796 26.44 29.6263 26.6133 30.1996 26.96C30.7863 27.3067 31.2463 27.7933 31.5796 28.42C31.9263 29.0333 32.0996 29.76 32.0996 30.6C32.0996 31.5067 31.8863 32.3067 31.4596 33C31.0329 33.6933 30.4396 34.2333 29.6796 34.62C28.9196 35.0067 28.0329 35.2 27.0196 35.2ZM25.4396 28.14V26.78L29.1796 22.42L31.9396 22.36L28.0396 26.84L25.4396 28.14ZM23.2796 23.06V21H31.9396V22.36L29.9596 23.06H23.2796Z" fill="white"/>
</svg>
