<svg width="55" height="55" viewBox="0 0 55 55" fill="none" xmlns="http://www.w3.org/2000/svg">
<circle opacity="0.1" cx="27.5" cy="27.5" r="27.5" fill="#E32228"/>
<circle opacity="0.2" cx="27.5" cy="27.5" r="21.5" fill="#E32228"/>
<rect x="11" y="11" width="33" height="33" rx="16.5" fill="#E32228"/>
<path d="M22.6498 33.64L27.8098 28.16C28.2365 27.7067 28.5832 27.3 28.8498 26.94C29.1165 26.58 29.3098 26.24 29.4298 25.92C29.5498 25.6 29.6098 25.2733 29.6098 24.94C29.6098 24.3133 29.4032 23.8267 28.9898 23.48C28.5898 23.12 28.0765 22.94 27.4498 22.94C26.7832 22.94 26.1965 23.1067 25.6898 23.44C25.1832 23.7733 24.7298 24.2933 24.3298 25L22.7298 23.68C23.2765 22.7333 23.9498 22.02 24.7498 21.54C25.5498 21.0467 26.4765 20.8 27.5298 20.8C28.3965 20.8 29.1565 20.9733 29.8098 21.32C30.4632 21.6667 30.9698 22.1533 31.3298 22.78C31.6898 23.3933 31.8698 24.1067 31.8698 24.92C31.8698 25.5067 31.7965 26.0333 31.6498 26.5C31.5165 26.9533 31.2832 27.4133 30.9498 27.88C30.6165 28.3333 30.1565 28.8667 29.5698 29.48L25.6098 33.58L22.6498 33.64ZM22.6498 35V33.64L24.6298 32.94H32.1498V35H22.6498Z" fill="white"/>
</svg>
