<svg width="72" height="72" viewBox="0 0 72 72" fill="none" xmlns="http://www.w3.org/2000/svg">
<rect width="72" height="72" rx="36" fill="#E32228" fill-opacity="0.1"/>
<path d="M47.3428 37.3722V22.1805C47.3431 21.8944 47.2871 21.6111 47.1779 21.3467C47.0686 21.0823 46.9084 20.8421 46.7064 20.6396C46.5043 20.4371 46.2643 20.2763 46.0001 20.1666C45.736 20.0569 45.4528 20.0003 45.1667 20H27.835C27.5489 19.9997 27.2656 20.0557 27.0012 20.1649C26.7368 20.2741 26.4965 20.4344 26.294 20.6365C26.0915 20.8385 25.9308 21.0785 25.8211 21.3426C25.7113 21.6068 25.6547 21.89 25.6544 22.1761V37.3722" stroke="#E32228" stroke-width="2" stroke-miterlimit="10" stroke-linecap="round"/>
<path d="M30.1091 47.9387V49.6898C30.1092 49.9234 30.0633 50.1548 29.974 50.3706C29.8847 50.5865 29.7537 50.7826 29.5886 50.9478C29.4234 51.113 29.2273 51.2442 29.0115 51.3336C28.7957 51.423 28.5643 51.4691 28.3307 51.4691H24.8282C24.3564 51.4691 23.9039 51.2816 23.5703 50.948C23.2367 50.6144 23.0493 50.162 23.0493 49.6902V47.9392" stroke="#E32228" stroke-width="2" stroke-miterlimit="10" stroke-linecap="round"/>
<path d="M50.4058 47.9031V49.6895C50.4059 49.9231 50.36 50.1545 50.2707 50.3703C50.1813 50.5862 50.0503 50.7823 49.8852 50.9475C49.72 51.1127 49.524 51.2439 49.3081 51.3333C49.0923 51.4227 48.861 51.4688 48.6273 51.4688H45.1253C44.6534 51.4688 44.2008 51.2813 43.8671 50.9476C43.5334 50.6139 43.3459 50.1614 43.3459 49.6895V47.9384" stroke="#E32228" stroke-width="2" stroke-miterlimit="10" stroke-linecap="round"/>
<path d="M42.6551 37.3718H50.2181C50.6864 37.3718 51.1355 37.5579 51.4666 37.889C51.7977 38.2201 51.9837 38.6692 51.9837 39.1374V45.6503C51.9837 46.1185 51.7977 46.5677 51.4666 46.8988C51.1355 47.2299 50.6864 47.4159 50.2181 47.4159H22.7817C22.3135 47.4159 21.8644 47.2299 21.5332 46.8988C21.2021 46.5677 21.0161 46.1185 21.0161 45.6503V39.1374C21.0161 38.6692 21.2021 38.2201 21.5332 37.889C21.8644 37.5579 22.3135 37.3718 22.7817 37.3718H30.3509" stroke="#E32228" stroke-width="2" stroke-miterlimit="10" stroke-linecap="round"/>
<path d="M30.3464 47.4143V35.1111C30.3464 34.6428 30.5325 34.1937 30.8636 33.8626C31.1947 33.5315 31.6438 33.3455 32.1121 33.3455H40.8885C41.3568 33.3455 41.8059 33.5315 42.137 33.8626C42.4681 34.1937 42.6541 34.6428 42.6541 35.1111V47.4134" stroke="#E32228" stroke-width="2" stroke-miterlimit="10" stroke-linecap="round"/>
<path d="M25.6552 24.3193H47.3436" stroke="#E32228" stroke-width="2" stroke-miterlimit="10" stroke-linecap="round"/>
<path d="M21.0161 39.0515V28.2058C21.0161 27.7375 20.8301 27.2885 20.499 26.9573C20.1679 26.6262 19.7188 26.4402 19.2505 26.4402H18" stroke="#E32228" stroke-width="2" stroke-miterlimit="10" stroke-linecap="round"/>
<path d="M51.9836 39.1364V28.292C51.9836 27.8237 52.1697 27.3746 52.5008 27.0435C52.8319 26.7124 53.281 26.5264 53.7493 26.5264H55.0002" stroke="#E32228" stroke-width="2" stroke-miterlimit="10" stroke-linecap="round"/>
<path d="M25.6553 43.6221C26.5502 43.6221 27.2757 42.8966 27.2757 42.0017C27.2757 41.1068 26.5502 40.3813 25.6553 40.3813C24.7604 40.3813 24.0349 41.1068 24.0349 42.0017C24.0349 42.8966 24.7604 43.6221 25.6553 43.6221Z" fill="#E32228"/>
<path d="M47.3421 43.6221C48.237 43.6221 48.9625 42.8966 48.9625 42.0017C48.9625 41.1068 48.237 40.3813 47.3421 40.3813C46.4472 40.3813 45.7217 41.1068 45.7217 42.0017C45.7217 42.8966 46.4472 43.6221 47.3421 43.6221Z" fill="#E32228"/>
</svg>
