<svg width="72" height="72" viewBox="0 0 72 72" fill="none" xmlns="http://www.w3.org/2000/svg">
<rect width="72" height="72" rx="36" fill="#E32228" fill-opacity="0.1"/>
<path d="M36.0001 34.3334C39.9887 34.3334 43.2223 31.0999 43.2223 27.1111C43.2223 23.1224 39.9887 19.8889 36.0001 19.8889C32.0113 19.8889 28.7778 23.1224 28.7778 27.1111C28.7778 31.0999 32.0113 34.3334 36.0001 34.3334Z" stroke="#E32228" stroke-width="2" stroke-linecap="round" stroke-linejoin="round"/>
<path d="M36 45.4444V34.3333" stroke="#E32228" stroke-width="2" stroke-linecap="round" stroke-linejoin="round"/>
<path d="M42.6667 43.6201C48.2378 44.3201 52.1111 45.869 52.1111 47.6668C52.1111 50.1223 44.8978 52.1112 36 52.1112C27.1022 52.1112 19.8889 50.1223 19.8889 47.6668C19.8889 45.869 23.7622 44.3179 29.3334 43.6201" stroke="#E32228" stroke-width="2" stroke-linecap="round" stroke-linejoin="round"/>
</svg>
