<svg width="72" height="72" viewBox="0 0 72 72" fill="none" xmlns="http://www.w3.org/2000/svg">
<rect width="72" height="72" rx="36" fill="#E32228" fill-opacity="0.1"/>
<path d="M43.4333 42.1111H49.8889" stroke="#E32228" stroke-width="2" stroke-linecap="round" stroke-linejoin="round"/>
<path d="M35.509 26.3777L34.9957 25.6822C34.3668 24.8333 33.3735 24.3311 32.3157 24.3311H29.0757C28.2135 24.3311 27.3846 24.6666 26.7623 25.2644L22.6135 29.2644C22.4579 29.4133 22.2846 29.5377 22.0979 29.6355" stroke="#E32228" stroke-width="2" stroke-linecap="round" stroke-linejoin="round"/>
<path d="M22.1111 42.111H24.9111C25.5844 42.111 26.2222 42.4177 26.6444 42.9421L29.0511 45.9399C30.3755 47.5888 32.6777 48.0777 34.5577 47.1066L41.8333 43.3443C44.3022 42.0688 45.0066 38.8643 43.3022 36.671L39.64 31.9554" stroke="#E32228" stroke-width="2" stroke-linecap="round" stroke-linejoin="round"/>
<path d="M49.9067 29.6399C49.7178 29.5421 49.5445 29.4177 49.3889 29.2666L45.2401 25.2666C44.6178 24.6688 43.7889 24.3333 42.9267 24.3333H38.9112C38.0134 24.3333 37.1534 24.6955 36.5245 25.3399L30.9801 31.0244C29.8734 32.1577 29.8845 33.971 31.0045 35.091C31.9978 36.0844 33.5601 36.2199 34.7112 35.4133L41.0001 31.0021" stroke="#E32228" stroke-width="2" stroke-linecap="round" stroke-linejoin="round"/>
<path d="M17.6667 27.6666H19.889C21.1156 27.6666 22.1112 28.6622 22.1112 29.8888V43.2222C22.1112 44.4488 21.1156 45.4444 19.889 45.4444H17.6667" stroke="#E32228" stroke-width="2" stroke-linecap="round" stroke-linejoin="round"/>
<path d="M54.3334 27.6666H52.1111C50.8845 27.6666 49.8889 28.6622 49.8889 29.8888V43.2222C49.8889 44.4488 50.8845 45.4444 52.1111 45.4444H54.3334" stroke="#E32228" stroke-width="2" stroke-linecap="round" stroke-linejoin="round"/>
</svg>
