<svg width="72" height="72" viewBox="0 0 72 72" fill="none" xmlns="http://www.w3.org/2000/svg">
<rect width="72" height="72" rx="36" fill="#E32228" fill-opacity="0.1"/>
<path d="M46 47.4361H44.7333C43.4 47.4361 42.1333 47.9528 41.2 48.8861L38.35 51.7029C37.05 52.9863 34.9333 52.9863 33.6333 51.7029L30.7833 48.8861C29.85 47.9528 28.5667 47.4361 27.25 47.4361H26C23.2333 47.4361 21 45.2194 21 42.4861V24.3027C21 21.5694 23.2333 19.3528 26 19.3528H46C48.7667 19.3528 51 21.5694 51 24.3027V42.4861C51 45.2028 48.7667 47.4361 46 47.4361Z" stroke="#E32228" stroke-opacity="0.890196" stroke-width="2" stroke-miterlimit="10" stroke-linecap="round" stroke-linejoin="round"/>
<path d="M27.6667 31.2645C27.6667 29.7145 28.9334 28.4478 30.4834 28.4478C32.0334 28.4478 33.3001 29.7145 33.3001 31.2645C33.3001 34.3978 28.8501 34.7312 27.8667 37.7145C27.6667 38.3312 28.1834 38.9478 28.8334 38.9478H33.3001" stroke="#E32228" stroke-opacity="0.890196" stroke-width="2" stroke-linecap="round" stroke-linejoin="round"/>
<path d="M42.7329 38.9345V29.418C42.7329 28.9846 42.4496 28.6012 42.0329 28.4845C41.6163 28.3679 41.1663 28.5345 40.9329 28.9012C39.7329 30.8345 38.4329 33.0345 37.2996 34.9678C37.1163 35.2845 37.1163 35.7012 37.2996 36.0178C37.4829 36.3345 37.8329 36.5345 38.2163 36.5345H44.3329" stroke="#E32228" stroke-opacity="0.890196" stroke-width="2" stroke-linecap="round" stroke-linejoin="round"/>
</svg>
