<svg width="40" height="40" viewBox="0 0 40 40" fill="none" xmlns="http://www.w3.org/2000/svg">
<path d="M27.4333 26.1111H33.8889" stroke="#E32228" stroke-width="2" stroke-linecap="round" stroke-linejoin="round"/>
<path d="M19.509 10.3777L18.9957 9.68217C18.3668 8.83328 17.3735 8.33105 16.3157 8.33105H13.0757C12.2135 8.33105 11.3846 8.66661 10.7623 9.26439L6.61346 13.2644C6.4579 13.4133 6.28457 13.5377 6.0979 13.6355" stroke="#E32228" stroke-width="2" stroke-linecap="round" stroke-linejoin="round"/>
<path d="M6.11108 26.111H8.91108C9.58442 26.111 10.2222 26.4177 10.6444 26.9421L13.0511 29.9399C14.3755 31.5888 16.6777 32.0777 18.5577 31.1066L25.8333 27.3443C28.3022 26.0688 29.0066 22.8643 27.3022 20.671L23.64 15.9554" stroke="#E32228" stroke-width="2" stroke-linecap="round" stroke-linejoin="round"/>
<path d="M33.9067 13.6399C33.7178 13.5421 33.5445 13.4177 33.3889 13.2666L29.2401 9.26659C28.6178 8.66881 27.7889 8.33325 26.9267 8.33325H22.9112C22.0134 8.33325 21.1534 8.69547 20.5245 9.33992L14.9801 15.0244C13.8734 16.1577 13.8845 17.971 15.0045 19.091C15.9978 20.0844 17.5601 20.2199 18.7112 19.4133L25.0001 15.0021" stroke="#E32228" stroke-width="2" stroke-linecap="round" stroke-linejoin="round"/>
<path d="M1.66675 11.6666H3.88897C5.11564 11.6666 6.11119 12.6622 6.11119 13.8888V27.2222C6.11119 28.4488 5.11564 29.4444 3.88897 29.4444H1.66675" stroke="#E32228" stroke-width="2" stroke-linecap="round" stroke-linejoin="round"/>
<path d="M38.3334 11.6666H36.1111C34.8845 11.6666 33.8889 12.6622 33.8889 13.8888V27.2222C33.8889 28.4488 34.8845 29.4444 36.1111 29.4444H38.3334" stroke="#E32228" stroke-width="2" stroke-linecap="round" stroke-linejoin="round"/>
</svg>
