<svg width="16" height="17" viewBox="0 0 16 17" fill="none" xmlns="http://www.w3.org/2000/svg">
<path d="M10.7221 6C10.7221 5.72386 10.4983 5.5 10.2221 5.5C9.94599 5.5 9.72212 5.72386 9.72212 6H10.7221ZM6.2777 6C6.2777 5.72386 6.05384 5.5 5.7777 5.5C5.50155 5.5 5.2777 5.72386 5.2777 6H6.2777ZM14.1666 4.5V6H15.1666V4.5H14.1666ZM12.4444 8C11.5469 8 10.7221 7.16156 10.7221 6H9.72212C9.72212 7.59987 10.8872 9 12.4444 9V8ZM14.1666 6C14.1666 7.16156 13.3418 8 12.4444 8V9C14.0015 9 15.1666 7.59987 15.1666 6H14.1666ZM7.99992 8C7.10252 8 6.2777 7.16156 6.2777 6H5.2777C5.2777 7.59987 6.44274 9 7.99992 9V8ZM9.72212 6C9.72212 7.16156 8.89732 8 7.99992 8V9C9.55712 9 10.7221 7.59987 10.7221 6H9.72212ZM1.83325 6V4.5H0.833252V6H1.83325ZM3.55547 8C2.65805 8 1.83325 7.16156 1.83325 6H0.833252C0.833252 7.59987 1.9983 9 3.55547 9V8ZM5.2777 6C5.2777 7.16156 4.45289 8 3.55547 8V9C5.11265 9 6.2777 7.59987 6.2777 6H5.2777ZM11.9999 1.33333H3.99992V2.33333H11.9999V1.33333ZM1.83325 4.5C1.83325 3.30338 2.8033 2.33333 3.99992 2.33333V1.33333C2.25102 1.33333 0.833252 2.7511 0.833252 4.5H1.83325ZM15.1666 4.5C15.1666 2.7511 13.7489 1.33333 11.9999 1.33333V2.33333C13.1965 2.33333 14.1666 3.30338 14.1666 4.5H15.1666Z" fill="#20285D"/>
<path d="M6.24707 12.0654C6.00705 11.9289 5.70179 12.0127 5.56524 12.2528C5.4287 12.4928 5.51259 12.7981 5.75261 12.9346L6.24707 12.0654ZM10.2454 12.9355C10.486 12.7999 10.571 12.495 10.4354 12.2545C10.2998 12.0139 9.99484 11.9289 9.75431 12.0645L10.2454 12.9355ZM5.75261 12.9346C6.56591 13.3973 7.26504 13.6681 8.00171 13.6667C8.73751 13.6653 9.43531 13.3923 10.2454 12.9355L9.75431 12.0645C8.99611 12.4919 8.47924 12.6657 7.99977 12.6667C7.52124 12.6676 7.00451 12.4963 6.24707 12.0654L5.75261 12.9346Z" fill="#20285D"/>
<path d="M13.5 7.83334V12.5H14.5V7.83334H13.5ZM11.3333 14.6667H4.66667V15.6667H11.3333V14.6667ZM2.5 12.5V7.83334H1.5V12.5H2.5ZM4.66667 14.6667C3.47005 14.6667 2.5 13.6966 2.5 12.5H1.5C1.5 14.2489 2.91777 15.6667 4.66667 15.6667V14.6667ZM13.5 12.5C13.5 13.6966 12.5299 14.6667 11.3333 14.6667V15.6667C13.0823 15.6667 14.5 14.2489 14.5 12.5H13.5Z" fill="#20285D"/>
</svg>
