<svg width="40" height="40" viewBox="0 0 40 40" fill="none" xmlns="http://www.w3.org/2000/svg">
<path d="M31.3428 21.3722V6.1805C31.3431 5.89444 31.2871 5.61112 31.1779 5.34673C31.0686 5.08233 30.9084 4.84206 30.7064 4.63958C30.5043 4.4371 30.2643 4.27634 30.0001 4.1666C29.736 4.05687 29.4528 4.00029 29.1667 4H11.835C11.5489 3.99971 11.2656 4.05568 11.0012 4.16488C10.7368 4.27408 10.4965 4.43438 10.294 4.63646C10.0915 4.83853 9.93082 5.07846 9.82108 5.34263C9.71134 5.60681 9.65471 5.89002 9.65442 6.17608V21.3722" stroke="#E32228" stroke-width="2" stroke-miterlimit="10" stroke-linecap="round"/>
<path d="M14.1091 31.9387V33.6898C14.1092 33.9234 14.0633 34.1548 13.974 34.3706C13.8847 34.5865 13.7537 34.7826 13.5886 34.9478C13.4234 35.113 13.2273 35.2442 13.0115 35.3336C12.7957 35.423 12.5643 35.4691 12.3307 35.4691H8.82818C8.35639 35.4691 7.90393 35.2816 7.57033 34.948C7.23673 34.6144 7.04932 34.162 7.04932 33.6902V31.9392" stroke="#E32228" stroke-width="2" stroke-miterlimit="10" stroke-linecap="round"/>
<path d="M34.4058 31.9031V33.6895C34.4059 33.9231 34.36 34.1545 34.2707 34.3703C34.1813 34.5862 34.0503 34.7823 33.8852 34.9475C33.72 35.1127 33.524 35.2439 33.3081 35.3333C33.0923 35.4227 32.861 35.4688 32.6273 35.4688H29.1253C28.6534 35.4688 28.2008 35.2813 27.8671 34.9476C27.5334 34.6139 27.3459 34.1614 27.3459 33.6895V31.9384" stroke="#E32228" stroke-width="2" stroke-miterlimit="10" stroke-linecap="round"/>
<path d="M26.6551 21.3718H34.2181C34.6864 21.3718 35.1355 21.5579 35.4666 21.889C35.7977 22.2201 35.9837 22.6692 35.9837 23.1374V29.6503C35.9837 30.1185 35.7977 30.5677 35.4666 30.8988C35.1355 31.2299 34.6864 31.4159 34.2181 31.4159H6.78173C6.31346 31.4159 5.86437 31.2299 5.53325 30.8988C5.20213 30.5677 5.01611 30.1185 5.01611 29.6503V23.1374C5.01611 22.6692 5.20213 22.2201 5.53325 21.889C5.86437 21.5579 6.31346 21.3718 6.78173 21.3718H14.3509" stroke="#E32228" stroke-width="2" stroke-miterlimit="10" stroke-linecap="round"/>
<path d="M14.3464 31.4143V19.1111C14.3464 18.6428 14.5325 18.1937 14.8636 17.8626C15.1947 17.5315 15.6438 17.3455 16.1121 17.3455H24.8885C25.3568 17.3455 25.8059 17.5315 26.137 17.8626C26.4681 18.1937 26.6541 18.6428 26.6541 19.1111V31.4134" stroke="#E32228" stroke-width="2" stroke-miterlimit="10" stroke-linecap="round"/>
<path d="M9.65515 8.31934H31.3436" stroke="#E32228" stroke-width="2" stroke-miterlimit="10" stroke-linecap="round"/>
<path d="M5.01612 23.0515V12.2058C5.01612 11.7375 4.83009 11.2885 4.49897 10.9573C4.16785 10.6262 3.71877 10.4402 3.2505 10.4402H2" stroke="#E32228" stroke-width="2" stroke-miterlimit="10" stroke-linecap="round"/>
<path d="M35.9836 23.1364V12.292C35.9836 11.8237 36.1697 11.3746 36.5008 11.0435C36.8319 10.7124 37.281 10.5264 37.7493 10.5264H39.0002" stroke="#E32228" stroke-width="2" stroke-miterlimit="10" stroke-linecap="round"/>
<path d="M9.65531 27.6221C10.5502 27.6221 11.2757 26.8966 11.2757 26.0017C11.2757 25.1068 10.5502 24.3813 9.65531 24.3813C8.76039 24.3813 8.03491 25.1068 8.03491 26.0017C8.03491 26.8966 8.76039 27.6221 9.65531 27.6221Z" fill="#E32228"/>
<path d="M31.3421 27.6221C32.237 27.6221 32.9625 26.8966 32.9625 26.0017C32.9625 25.1068 32.237 24.3813 31.3421 24.3813C30.4472 24.3813 29.7217 25.1068 29.7217 26.0017C29.7217 26.8966 30.4472 27.6221 31.3421 27.6221Z" fill="#E32228"/>
</svg>
