<svg width="81" height="65" viewBox="0 0 81 65" fill="none" xmlns="http://www.w3.org/2000/svg">
<path d="M36.0834 7.5087L21.2746 35.0406L12.7231 37.3349C13.6964 35.5272 14.8088 33.9977 16.0603 32.7462C17.4508 31.4948 18.9108 30.8691 20.4403 30.8691C24.0556 30.8691 27.3233 32.3986 30.2433 35.4577C33.3024 38.5168 34.832 42.3407 34.832 46.9293C34.832 51.7961 33.1634 56.0371 29.8262 59.6524C26.489 63.1286 22.387 64.8668 17.5203 64.8668C12.7926 64.8668 8.69062 63.1286 5.21437 59.6524C1.73812 56.1762 0 51.9351 0 46.9293C0 44.9826 0.41715 42.6883 1.25145 40.0464C2.08575 37.2654 3.6153 33.7891 5.84009 29.6176L21.9004 0L36.0834 7.5087ZM80.927 7.5087L66.1182 35.0406L57.5666 37.3349C58.54 35.5272 59.6524 33.9977 60.9038 32.7462C62.1553 31.4948 63.6153 30.8691 65.2839 30.8691C68.8992 30.8691 72.1669 32.3986 75.0869 35.4577C78.146 38.5168 79.6756 42.3407 79.6756 46.9293C79.6756 51.7961 77.9374 56.0371 74.4612 59.6524C71.124 63.1286 67.022 64.8668 62.1553 64.8668C57.5666 64.8668 53.5342 63.1286 50.058 59.6524C46.5817 56.1762 44.8436 51.9351 44.8436 46.9293C44.8436 44.9826 45.2607 42.6883 46.095 40.0464C46.9293 37.2654 48.4589 33.7891 50.6837 29.6176L66.7439 0L80.927 7.5087Z" fill="#E32228"/>
</svg>
