<svg width="115" height="36" viewBox="0 0 115 36" fill="none" xmlns="http://www.w3.org/2000/svg">
<path d="M0 20.7237C64.3767 23.2169 82.627 35.9207 82.627 35.9207H96.8525C93.7001 33.7844 89.6853 31.9455 85.1152 30.3544L88.2181 29.5118C93.031 31.2912 97.2342 33.3978 100.486 35.9207H114.711C77.7398 10.5675 0 20.7237 0 20.7237ZM14.1165 20.2875V20.4758C10.5675 20.3668 8.47088 20.3569 8.47088 20.3569C8.47088 20.3569 10.5576 20.2974 14.1165 20.2875ZM21.8488 20.347V20.7732C19.0037 20.6345 16.5105 20.5452 14.4734 20.4858V20.2875C16.5105 20.2875 19.0136 20.2974 21.8488 20.347ZM22.6022 20.3569C24.9071 20.4064 27.425 20.4758 30.1165 20.575V21.2392C27.4349 21.0607 24.917 20.912 22.6022 20.803V20.3569ZM39.5291 21.0607L38.8451 21.9232C36.0644 21.6753 33.3779 21.4672 30.8253 21.2986V20.6146C33.5861 20.7237 36.5006 20.8724 39.5242 21.0706V21.0607H39.5291ZM58.8203 24.2825C55.7869 23.8166 52.7286 23.4002 49.715 23.0483L50.518 21.9628C53.7993 22.29 57.1202 22.6766 60.4263 23.1276L58.8253 24.2825H58.8203ZM61.8042 23.316C65.4126 23.8414 68.9913 24.4511 72.4709 25.1648L69.8687 26.2503C66.746 25.596 63.539 25.026 60.3073 24.5105L61.7993 23.316H61.8042ZM48.4858 22.8996C45.5118 22.5527 42.5824 22.2553 39.7472 21.9975L40.4511 21.1152C43.3358 21.3135 46.3247 21.5514 49.3482 21.8389L48.4957 22.9046L48.4858 22.8947V22.8996ZM81.8538 29.2887C78.8302 28.3569 75.6035 27.5291 72.2726 26.7856L74.6468 25.6406C78.3048 26.4535 81.824 27.3804 85.1152 28.4461L81.8439 29.2986L81.8538 29.2887Z" fill="#E32228"/>
<path d="M68.0843 31.0236C66.4932 30.5279 62.1611 29.3928 62.1611 29.3928C58.8798 28.5601 54.974 27.6927 50.4139 26.8402C49.6803 26.7014 45.3333 25.948 45.3333 25.948C42.5527 25.4919 39.5688 25.0459 36.3569 24.6345C32.6394 24.119 17.6803 22.7162 17.6803 22.7162C14.7262 22.4882 11.6382 22.2801 8.42628 22.1016L3.23669 21.6555L8.26767 22.9789L5.96284 36H29.5118L31.0533 27.3606H16.8674L17.6208 23.1177C19.6184 23.1376 36.2974 25.0459 36.2974 25.0459L34.3594 35.9901H43.5638L45.2838 26.29L50.4932 27.1623L52.3024 35.9901H58.4734L61.9827 29.7299C63.5341 30.1561 68.0248 31.4102 68.0248 31.4102L67.2119 35.9901H76.1091L76.4659 33.9529C74.3594 33.0806 71.6035 32.0843 68.0892 31.0186H68.0793L68.0843 31.0236Z" fill="#20285D"/>
<path d="M82.4685 0H70.0819L59.7721 18.3792L57.0112 18.1611L53.2095 0H40.7138L37.6308 17.3829C33.9331 17.2639 19.6382 17.7497 18.5379 17.7893L21.6903 0H12.3371L8.99634 18.8451C11.6878 18.627 14.8799 18.399 18.4784 18.2007C22.5032 17.9628 37.5812 17.7447 37.5812 17.7447C40.5354 17.7646 43.6035 17.824 46.756 17.943L48.6246 18.0223C51.4053 18.1512 54.2306 18.3197 57.0955 18.5477L59.5589 18.7559C62.2405 18.9938 64.9369 19.2813 67.6382 19.6283L70.062 19.9554L70.1215 19.6183L67.8365 19.2813L71.2665 13.1599L70.062 19.9504C72.9468 20.3569 75.8365 20.8327 78.6915 21.373C78.6915 21.373 81.0558 21.8984 82.1909 22.2652C82.1909 22.2652 80.8278 21.4523 78.7807 20.8922L82.4685 0ZM46.8055 17.6307L47.6085 13.1103L48.5453 17.71L46.8055 17.6307Z" fill="#20285D"/>
</svg>
